<svg width="265" height="259" viewBox="0 0 265 259" fill="none" xmlns="http://www.w3.org/2000/svg">
<path fill-rule="evenodd" clip-rule="evenodd" d="M263.37 258.668L6.80966 256.464L1.21265 42.0109L45.235 6.54077L260.689 4.64059L260.813 258.035" fill="#F7E6B9"/>
<path d="M263.63 256.975C177.302 253.528 88.4791 257.048 4.10385 255.648M262.777 256.5C200.901 258.132 140.1 256.793 7.26685 255.721M6.30311 257.402C2.37409 185.097 3.94324 114.924 2.63357 45.7747M6.53787 254.831C3.98029 187.679 2.23819 119.894 0.718471 43.7283M3.70848 45.0682C12.1472 33.5453 22.4393 26.6023 43.6659 5.01815M2.48529 44.8489C14.3341 31.7304 28.3823 19.4766 44.3702 4.71363M45.2721 4.44565C126.299 0.681827 204.484 1.51012 260.467 0.718372M45.4575 4.05588C128.572 4.93289 213.813 4.6771 259.799 1.61975M258.527 1.5223C259.219 67.9435 257.563 136.24 263.976 255.355M259.565 1.59538C258.799 100.795 260.442 199.617 262.987 256.975" stroke="black" stroke-width="1.43693" stroke-linecap="round"/>
</svg>
