<svg width="39" height="54" viewBox="0 0 39 54" fill="none" xmlns="http://www.w3.org/2000/svg">
<path d="M21.6005 52.4572H20.0576V54H21.6005V52.4572Z" fill="black"/>
<path d="M20.0575 52.4572H18.5146V54H20.0575V52.4572Z" fill="black"/>
<path d="M18.5161 52.4572H16.9717V54H18.5161V52.4572Z" fill="black"/>
<path d="M24.6854 50.9143H23.1426V52.4572H24.6854V50.9143Z" fill="black"/>
<path d="M23.1425 50.9143H21.5996V52.4572H23.1425V50.9143Z" fill="black"/>
<path d="M21.6005 50.9143H20.0576V52.4572H21.6005V50.9143Z" fill="#D9A066"/>
<path d="M20.0575 50.9143H18.5146V52.4572H20.0575V50.9143Z" fill="black"/>
<path d="M18.5161 50.9143H16.9717V52.4572H18.5161V50.9143Z" fill="#EEC39A"/>
<path d="M16.9716 50.9143H15.4287V52.4572H16.9716V50.9143Z" fill="black"/>
<path d="M15.4286 50.9143H13.8857V52.4572H15.4286V50.9143Z" fill="black"/>
<path d="M27.7714 49.3699H26.2285V50.9143H27.7714V49.3699Z" fill="black"/>
<path d="M26.2284 49.3699H24.6855V50.9143H26.2284V49.3699Z" fill="black"/>
<path d="M24.6854 49.3699H23.1426V50.9143H24.6854V49.3699Z" fill="#D9A066"/>
<path d="M23.1425 49.3699H21.5996V50.9143H23.1425V49.3699Z" fill="#D9A066"/>
<path d="M21.6005 49.3699H20.0576V50.9143H21.6005V49.3699Z" fill="#D9A066"/>
<path d="M20.0575 49.3699H18.5146V50.9143H20.0575V49.3699Z" fill="black"/>
<path d="M18.5161 49.3699H16.9717V50.9143H18.5161V49.3699Z" fill="#EEC39A"/>
<path d="M16.9716 49.3699H15.4287V50.9143H16.9716V49.3699Z" fill="#EEC39A"/>
<path d="M15.4286 49.3699H13.8857V50.9143H15.4286V49.3699Z" fill="#EEC39A"/>
<path d="M13.8856 49.3699H12.3428V50.9143H13.8856V49.3699Z" fill="black"/>
<path d="M12.3427 49.3699H10.7998V50.9143H12.3427V49.3699Z" fill="black"/>
<path d="M30.8573 47.8286H29.3145V49.3714H30.8573V47.8286Z" fill="black"/>
<path d="M29.3143 47.8286H27.7715V49.3714H29.3143V47.8286Z" fill="black"/>
<path d="M27.7714 47.8286H26.2285V49.3714H27.7714V47.8286Z" fill="#D9A066"/>
<path d="M26.2284 47.8286H24.6855V49.3714H26.2284V47.8286Z" fill="#D9A066"/>
<path d="M24.6854 47.8286H23.1426V49.3714H24.6854V47.8286Z" fill="#D9A066"/>
<path d="M23.1425 47.8286H21.5996V49.3714H23.1425V47.8286Z" fill="#D9A066"/>
<path d="M21.6005 47.8286H20.0576V49.3714H21.6005V47.8286Z" fill="#D9A066"/>
<path d="M20.0575 47.8286H18.5146V49.3714H20.0575V47.8286Z" fill="black"/>
<path d="M18.5161 47.8286H16.9717V49.3714H18.5161V47.8286Z" fill="#EEC39A"/>
<path d="M16.9716 47.8286H15.4287V49.3714H16.9716V47.8286Z" fill="#EEC39A"/>
<path d="M15.4286 47.8286H13.8857V49.3714H15.4286V47.8286Z" fill="#EEC39A"/>
<path d="M13.8856 47.8286H12.3428V49.3714H13.8856V47.8286Z" fill="#EEC39A"/>
<path d="M12.3427 47.8286H10.7998V49.3714H12.3427V47.8286Z" fill="#EEC39A"/>
<path d="M10.7997 47.8286H9.25684V49.3714H10.7997V47.8286Z" fill="black"/>
<path d="M9.25672 47.8286H7.71387V49.3714H9.25672V47.8286Z" fill="black"/>
<path d="M33.9432 46.2857H32.4004V47.8286H33.9432V46.2857Z" fill="black"/>
<path d="M32.4018 46.2857H30.8574V47.8286H32.4018V46.2857Z" fill="black"/>
<path d="M30.8573 46.2857H29.3145V47.8286H30.8573V46.2857Z" fill="#D9A066"/>
<path d="M29.3143 46.2857H27.7715V47.8286H29.3143V46.2857Z" fill="#D9A066"/>
<path d="M27.7714 46.2857H26.2285V47.8286H27.7714V46.2857Z" fill="#D9A066"/>
<path d="M26.2284 46.2857H24.6855V47.8286H26.2284V46.2857Z" fill="#D9A066"/>
<path d="M24.6854 46.2857H23.1426V47.8286H24.6854V46.2857Z" fill="#D9A066"/>
<path d="M23.1425 46.2857H21.5996V47.8286H23.1425V46.2857Z" fill="#D9A066"/>
<path d="M21.6005 46.2857H20.0576V47.8286H21.6005V46.2857Z" fill="#D9A066"/>
<path d="M20.0575 46.2857H18.5146V47.8286H20.0575V46.2857Z" fill="black"/>
<path d="M18.5161 46.2857H16.9717V47.8286H18.5161V46.2857Z" fill="#EEC39A"/>
<path d="M16.9716 46.2857H15.4287V47.8286H16.9716V46.2857Z" fill="#EEC39A"/>
<path d="M15.4286 46.2857H13.8857V47.8286H15.4286V46.2857Z" fill="#EEC39A"/>
<path d="M13.8856 46.2857H12.3428V47.8286H13.8856V46.2857Z" fill="#EEC39A"/>
<path d="M12.3427 46.2857H10.7998V47.8286H12.3427V46.2857Z" fill="#EEC39A"/>
<path d="M10.7997 46.2857H9.25684V47.8286H10.7997V46.2857Z" fill="#EEC39A"/>
<path d="M9.25672 46.2857H7.71387V47.8286H9.25672V46.2857Z" fill="#EEC39A"/>
<path d="M7.71473 46.2857H6.17188V47.8286H7.71473V46.2857Z" fill="black"/>
<path d="M6.17176 46.2857H4.62891V47.8286H6.17176V46.2857Z" fill="black"/>
<path d="M33.9432 44.7428H32.4004V46.2857H33.9432V44.7428Z" fill="black"/>
<path d="M32.4018 44.7428H30.8574V46.2857H32.4018V44.7428Z" fill="#D9A066"/>
<path d="M30.8573 44.7428H29.3145V46.2857H30.8573V44.7428Z" fill="#D9A066"/>
<path d="M29.3143 44.7428H27.7715V46.2857H29.3143V44.7428Z" fill="#D9A066"/>
<path d="M27.7714 44.7428H26.2285V46.2857H27.7714V44.7428Z" fill="#D9A066"/>
<path d="M26.2284 44.7428H24.6855V46.2857H26.2284V44.7428Z" fill="#D9A066"/>
<path d="M24.6854 44.7428H23.1426V46.2857H24.6854V44.7428Z" fill="#D9A066"/>
<path d="M23.1425 44.7428H21.5996V46.2857H23.1425V44.7428Z" fill="#D9A066"/>
<path d="M21.6005 44.7428H20.0576V46.2857H21.6005V44.7428Z" fill="#D9A066"/>
<path d="M20.0575 44.7428H18.5146V46.2857H20.0575V44.7428Z" fill="black"/>
<path d="M18.5161 44.7428H16.9717V46.2857H18.5161V44.7428Z" fill="#D9A066"/>
<path d="M16.9716 44.7428H15.4287V46.2857H16.9716V44.7428Z" fill="#D9A066"/>
<path d="M15.4286 44.7428H13.8857V46.2857H15.4286V44.7428Z" fill="#EEC39A"/>
<path d="M13.8856 44.7428H12.3428V46.2857H13.8856V44.7428Z" fill="#EEC39A"/>
<path d="M12.3427 44.7428H10.7998V46.2857H12.3427V44.7428Z" fill="#EEC39A"/>
<path d="M10.7997 44.7428H9.25684V46.2857H10.7997V44.7428Z" fill="#EEC39A"/>
<path d="M9.25672 44.7428H7.71387V46.2857H9.25672V44.7428Z" fill="#EEC39A"/>
<path d="M7.71473 44.7428H6.17188V46.2857H7.71473V44.7428Z" fill="#EEC39A"/>
<path d="M6.17176 44.7428H4.62891V46.2857H6.17176V44.7428Z" fill="black"/>
<path d="M33.9432 43.2H32.4004V44.7429H33.9432V43.2Z" fill="black"/>
<path d="M32.4018 43.2H30.8574V44.7429H32.4018V43.2Z" fill="#D9A066"/>
<path d="M30.8573 43.2H29.3145V44.7429H30.8573V43.2Z" fill="#D9A066"/>
<path d="M29.3143 43.2H27.7715V44.7429H29.3143V43.2Z" fill="#D9A066"/>
<path d="M27.7714 43.2H26.2285V44.7429H27.7714V43.2Z" fill="#D9A066"/>
<path d="M26.2284 43.2H24.6855V44.7429H26.2284V43.2Z" fill="#D9A066"/>
<path d="M24.6854 43.2H23.1426V44.7429H24.6854V43.2Z" fill="#8F563B"/>
<path d="M23.1425 43.2H21.5996V44.7429H23.1425V43.2Z" fill="#D9A066"/>
<path d="M21.6005 43.2H20.0576V44.7429H21.6005V43.2Z" fill="#D9A066"/>
<path d="M20.0575 43.2H18.5146V44.7429H20.0575V43.2Z" fill="black"/>
<path d="M18.5161 43.2H16.9717V44.7429H18.5161V43.2Z" fill="#D9A066"/>
<path d="M16.9716 43.2H15.4287V44.7429H16.9716V43.2Z" fill="#D9A066"/>
<path d="M15.4286 43.2H13.8857V44.7429H15.4286V43.2Z" fill="#D9A066"/>
<path d="M13.8856 43.2H12.3428V44.7429H13.8856V43.2Z" fill="#D9A066"/>
<path d="M12.3427 43.2H10.7998V44.7429H12.3427V43.2Z" fill="#EEC39A"/>
<path d="M10.7997 43.2H9.25684V44.7429H10.7997V43.2Z" fill="#EEC39A"/>
<path d="M9.25672 43.2H7.71387V44.7429H9.25672V43.2Z" fill="#EEC39A"/>
<path d="M7.71473 43.2H6.17188V44.7429H7.71473V43.2Z" fill="#EEC39A"/>
<path d="M6.17176 43.2H4.62891V44.7429H6.17176V43.2Z" fill="black"/>
<path d="M33.9432 41.6572H32.4004V43.2H33.9432V41.6572Z" fill="black"/>
<path d="M32.4018 41.6572H30.8574V43.2H32.4018V41.6572Z" fill="#D9A066"/>
<path d="M30.8573 41.6572H29.3145V43.2H30.8573V41.6572Z" fill="#D9A066"/>
<path d="M29.3143 41.6572H27.7715V43.2H29.3143V41.6572Z" fill="#D9A066"/>
<path d="M27.7714 41.6572H26.2285V43.2H27.7714V41.6572Z" fill="#8F563B"/>
<path d="M26.2284 41.6572H24.6855V43.2H26.2284V41.6572Z" fill="#8F563B"/>
<path d="M24.6854 41.6572H23.1426V43.2H24.6854V41.6572Z" fill="#8F563B"/>
<path d="M23.1425 41.6572H21.5996V43.2H23.1425V41.6572Z" fill="#8F563B"/>
<path d="M21.6005 41.6572H20.0576V43.2H21.6005V41.6572Z" fill="#D9A066"/>
<path d="M20.0575 41.6572H18.5146V43.2H20.0575V41.6572Z" fill="black"/>
<path d="M18.5161 41.6572H16.9717V43.2H18.5161V41.6572Z" fill="#D9A066"/>
<path d="M16.9716 41.6572H15.4287V43.2H16.9716V41.6572Z" fill="#D9A066"/>
<path d="M15.4286 41.6572H13.8857V43.2H15.4286V41.6572Z" fill="#D9A066"/>
<path d="M13.8856 41.6572H12.3428V43.2H13.8856V41.6572Z" fill="#D9A066"/>
<path d="M12.3427 41.6572H10.7998V43.2H12.3427V41.6572Z" fill="#D9A066"/>
<path d="M10.7997 41.6572H9.25684V43.2H10.7997V41.6572Z" fill="#D9A066"/>
<path d="M9.25672 41.6572H7.71387V43.2H9.25672V41.6572Z" fill="#EEC39A"/>
<path d="M7.71473 41.6572H6.17188V43.2H7.71473V41.6572Z" fill="#EEC39A"/>
<path d="M6.17176 41.6572H4.62891V43.2H6.17176V41.6572Z" fill="black"/>
<path d="M33.9432 40.1143H32.4004V41.6571H33.9432V40.1143Z" fill="black"/>
<path d="M32.4018 40.1143H30.8574V41.6571H32.4018V40.1143Z" fill="#D9A066"/>
<path d="M30.8573 40.1143H29.3145V41.6571H30.8573V40.1143Z" fill="#8F563B"/>
<path d="M29.3143 40.1143H27.7715V41.6571H29.3143V40.1143Z" fill="#8F563B"/>
<path d="M27.7714 40.1143H26.2285V41.6571H27.7714V40.1143Z" fill="#8F563B"/>
<path d="M26.2284 40.1143H24.6855V41.6571H26.2284V40.1143Z" fill="#8F563B"/>
<path d="M24.6854 40.1143H23.1426V41.6571H24.6854V40.1143Z" fill="black"/>
<path d="M23.1425 40.1143H21.5996V41.6571H23.1425V40.1143Z" fill="#8F563B"/>
<path d="M21.6005 40.1143H20.0576V41.6571H21.6005V40.1143Z" fill="#8F563B"/>
<path d="M20.0575 40.1143H18.5146V41.6571H20.0575V40.1143Z" fill="black"/>
<path d="M18.5161 40.1143H16.9717V41.6571H18.5161V40.1143Z" fill="#D9A066"/>
<path d="M16.9716 40.1143H15.4287V41.6571H16.9716V40.1143Z" fill="#D9A066"/>
<path d="M15.4286 40.1143H13.8857V41.6571H15.4286V40.1143Z" fill="black"/>
<path d="M13.8856 40.1143H12.3428V41.6571H13.8856V40.1143Z" fill="#D9A066"/>
<path d="M12.3427 40.1143H10.7998V41.6571H12.3427V40.1143Z" fill="#D9A066"/>
<path d="M10.7997 40.1143H9.25684V41.6571H10.7997V40.1143Z" fill="#D9A066"/>
<path d="M9.25672 40.1143H7.71387V41.6571H9.25672V40.1143Z" fill="#D9A066"/>
<path d="M7.71473 40.1143H6.17188V41.6571H7.71473V40.1143Z" fill="#D9A066"/>
<path d="M6.17176 40.1143H4.62891V41.6571H6.17176V40.1143Z" fill="black"/>
<path d="M33.9432 38.5714H32.4004V40.1143H33.9432V38.5714Z" fill="black"/>
<path d="M32.4018 38.5714H30.8574V40.1143H32.4018V38.5714Z" fill="#8F563B"/>
<path d="M30.8573 38.5714H29.3145V40.1143H30.8573V38.5714Z" fill="#8F563B"/>
<path d="M29.3143 38.5714H27.7715V40.1143H29.3143V38.5714Z" fill="#8F563B"/>
<path d="M27.7714 38.5714H26.2285V40.1143H27.7714V38.5714Z" fill="black"/>
<path d="M26.2284 38.5714H24.6855V40.1143H26.2284V38.5714Z" fill="black"/>
<path d="M24.6854 38.5714H23.1426V40.1143H24.6854V38.5714Z" fill="#EEC39A"/>
<path d="M23.1425 38.5714H21.5996V40.1143H23.1425V38.5714Z" fill="black"/>
<path d="M21.6005 38.5714H20.0576V40.1143H21.6005V38.5714Z" fill="#8F563B"/>
<path d="M20.0575 38.5714H18.5146V40.1143H20.0575V38.5714Z" fill="black"/>
<path d="M18.5161 38.5714H16.9717V40.1143H18.5161V38.5714Z" fill="#D9A066"/>
<path d="M16.9716 38.5714H15.4287V40.1143H16.9716V38.5714Z" fill="black"/>
<path d="M15.4286 38.5714H13.8857V40.1143H15.4286V38.5714Z" fill="#EEC39A"/>
<path d="M13.8856 38.5714H12.3428V40.1143H13.8856V38.5714Z" fill="black"/>
<path d="M12.3427 38.5714H10.7998V40.1143H12.3427V38.5714Z" fill="black"/>
<path d="M10.7997 38.5714H9.25684V40.1143H10.7997V38.5714Z" fill="#D9A066"/>
<path d="M9.25672 38.5714H7.71387V40.1143H9.25672V38.5714Z" fill="#D9A066"/>
<path d="M7.71473 38.5714H6.17188V40.1143H7.71473V38.5714Z" fill="#D9A066"/>
<path d="M6.17176 38.5714H4.62891V40.1143H6.17176V38.5714Z" fill="black"/>
<path d="M33.9432 37.0286H32.4004V38.5714H33.9432V37.0286Z" fill="black"/>
<path d="M32.4018 37.0286H30.8574V38.5714H32.4018V37.0286Z" fill="#8F563B"/>
<path d="M30.8573 37.0286H29.3145V38.5714H30.8573V37.0286Z" fill="black"/>
<path d="M29.3143 37.0286H27.7715V38.5714H29.3143V37.0286Z" fill="black"/>
<path d="M27.7714 37.0286H26.2285V38.5714H27.7714V37.0286Z" fill="#EEC39A"/>
<path d="M26.2284 37.0286H24.6855V38.5714H26.2284V37.0286Z" fill="#EEC39A"/>
<path d="M24.6854 37.0286H23.1426V38.5714H24.6854V37.0286Z" fill="#EEC39A"/>
<path d="M23.1425 37.0286H21.5996V38.5714H23.1425V37.0286Z" fill="#EEC39A"/>
<path d="M21.6005 37.0286H20.0576V38.5714H21.6005V37.0286Z" fill="black"/>
<path d="M20.0575 37.0286H18.5146V38.5714H20.0575V37.0286Z" fill="#8F563B"/>
<path d="M18.5161 37.0286H16.9717V38.5714H18.5161V37.0286Z" fill="black"/>
<path d="M16.9716 37.0286H15.4287V38.5714H16.9716V37.0286Z" fill="#EEC39A"/>
<path d="M15.4286 37.0286H13.8857V38.5714H15.4286V37.0286Z" fill="#EEC39A"/>
<path d="M13.8856 37.0286H12.3428V38.5714H13.8856V37.0286Z" fill="#EEC39A"/>
<path d="M12.3427 37.0286H10.7998V38.5714H12.3427V37.0286Z" fill="#EEC39A"/>
<path d="M10.7997 37.0286H9.25684V38.5714H10.7997V37.0286Z" fill="black"/>
<path d="M9.25672 37.0286H7.71387V38.5714H9.25672V37.0286Z" fill="black"/>
<path d="M7.71473 37.0286H6.17188V38.5714H7.71473V37.0286Z" fill="#D9A066"/>
<path d="M6.17176 37.0286H4.62891V38.5714H6.17176V37.0286Z" fill="black"/>
<path d="M33.9432 35.4842H32.4004V37.0286H33.9432V35.4842Z" fill="black"/>
<path d="M32.4018 35.4842H30.8574V37.0286H32.4018V35.4842Z" fill="black"/>
<path d="M30.8573 35.4842H29.3145V37.0286H30.8573V35.4842Z" fill="#EEC39A"/>
<path d="M29.3143 35.4842H27.7715V37.0286H29.3143V35.4842Z" fill="#EEC39A"/>
<path d="M27.7714 35.4842H26.2285V37.0286H27.7714V35.4842Z" fill="#EEC39A"/>
<path d="M26.2284 35.4842H24.6855V37.0286H26.2284V35.4842Z" fill="#EEC39A"/>
<path d="M24.6854 35.4842H23.1426V37.0286H24.6854V35.4842Z" fill="#EEC39A"/>
<path d="M23.1425 35.4842H21.5996V37.0286H23.1425V35.4842Z" fill="#EEC39A"/>
<path d="M21.6005 35.4842H20.0576V37.0286H21.6005V35.4842Z" fill="#EEC39A"/>
<path d="M20.0575 35.4842H18.5146V37.0286H20.0575V35.4842Z" fill="black"/>
<path d="M18.5161 35.4842H16.9717V37.0286H18.5161V35.4842Z" fill="#EEC39A"/>
<path d="M16.9716 35.4842H15.4287V37.0286H16.9716V35.4842Z" fill="#EEC39A"/>
<path d="M15.4286 35.4842H13.8857V37.0286H15.4286V35.4842Z" fill="#EEC39A"/>
<path d="M13.8856 35.4842H12.3428V37.0286H13.8856V35.4842Z" fill="#EEC39A"/>
<path d="M12.3427 35.4842H10.7998V37.0286H12.3427V35.4842Z" fill="#EEC39A"/>
<path d="M10.7997 35.4842H9.25684V37.0286H10.7997V35.4842Z" fill="#EEC39A"/>
<path d="M9.25672 35.4842H7.71387V37.0286H9.25672V35.4842Z" fill="#EEC39A"/>
<path d="M7.71473 35.4842H6.17188V37.0286H7.71473V35.4842Z" fill="black"/>
<path d="M6.17176 35.4842H4.62891V37.0286H6.17176V35.4842Z" fill="black"/>
<path d="M37.0282 33.9429H35.4854V35.4857H37.0282V33.9429Z" fill="black"/>
<path d="M35.4852 33.9429H33.9424V35.4857H35.4852V33.9429Z" fill="black"/>
<path d="M33.9432 33.9429H32.4004V35.4857H33.9432V33.9429Z" fill="#EEC39A"/>
<path d="M32.4018 33.9429H30.8574V35.4857H32.4018V33.9429Z" fill="#EEC39A"/>
<path d="M30.8573 33.9429H29.3145V35.4857H30.8573V33.9429Z" fill="#EEC39A"/>
<path d="M29.3143 33.9429H27.7715V35.4857H29.3143V33.9429Z" fill="#EEC39A"/>
<path d="M27.7714 33.9429H26.2285V35.4857H27.7714V33.9429Z" fill="#EEC39A"/>
<path d="M26.2284 33.9429H24.6855V35.4857H26.2284V33.9429Z" fill="#EEC39A"/>
<path d="M24.6854 33.9429H23.1426V35.4857H24.6854V33.9429Z" fill="#EEC39A"/>
<path d="M23.1425 33.9429H21.5996V35.4857H23.1425V33.9429Z" fill="#EEC39A"/>
<path d="M21.6005 33.9429H20.0576V35.4857H21.6005V33.9429Z" fill="black"/>
<path d="M20.0575 33.9429H18.5146V35.4857H20.0575V33.9429Z" fill="#8F563B"/>
<path d="M18.5161 33.9429H16.9717V35.4857H18.5161V33.9429Z" fill="black"/>
<path d="M16.9716 33.9429H15.4287V35.4857H16.9716V33.9429Z" fill="#EEC39A"/>
<path d="M15.4286 33.9429H13.8857V35.4857H15.4286V33.9429Z" fill="#EEC39A"/>
<path d="M13.8856 33.9429H12.3428V35.4857H13.8856V33.9429Z" fill="#EEC39A"/>
<path d="M12.3427 33.9429H10.7998V35.4857H12.3427V33.9429Z" fill="#EEC39A"/>
<path d="M10.7997 33.9429H9.25684V35.4857H10.7997V33.9429Z" fill="#EEC39A"/>
<path d="M9.25672 33.9429H7.71387V35.4857H9.25672V33.9429Z" fill="#EEC39A"/>
<path d="M7.71473 33.9429H6.17188V35.4857H7.71473V33.9429Z" fill="#EEC39A"/>
<path d="M6.17176 33.9429H4.62891V35.4857H6.17176V33.9429Z" fill="#EEC39A"/>
<path d="M4.63035 33.9429H3.08594V35.4857H4.63035V33.9429Z" fill="black"/>
<path d="M3.08583 33.9429H1.54297V35.4857H3.08583V33.9429Z" fill="black"/>
<path d="M38.5712 32.4H37.0283V33.9429H38.5712V32.4Z" fill="black"/>
<path d="M37.0282 32.4H35.4854V33.9429H37.0282V32.4Z" fill="#EEC39A"/>
<path d="M35.4852 32.4H33.9424V33.9429H35.4852V32.4Z" fill="#EEC39A"/>
<path d="M33.9432 32.4H32.4004V33.9429H33.9432V32.4Z" fill="#EEC39A"/>
<path d="M32.4018 32.4H30.8574V33.9429H32.4018V32.4Z" fill="#EEC39A"/>
<path d="M30.8573 32.4H29.3145V33.9429H30.8573V32.4Z" fill="#EEC39A"/>
<path d="M29.3143 32.4H27.7715V33.9429H29.3143V32.4Z" fill="#EEC39A"/>
<path d="M27.7714 32.4H26.2285V33.9429H27.7714V32.4Z" fill="#EEC39A"/>
<path d="M26.2284 32.4H24.6855V33.9429H26.2284V32.4Z" fill="#EEC39A"/>
<path d="M24.6854 32.4H23.1426V33.9429H24.6854V32.4Z" fill="black"/>
<path d="M23.1425 32.4H21.5996V33.9429H23.1425V32.4Z" fill="black"/>
<path d="M21.6005 32.4H20.0576V33.9429H21.6005V32.4Z" fill="#8F563B"/>
<path d="M20.0575 32.4H18.5146V33.9429H20.0575V32.4Z" fill="#8F563B"/>
<path d="M18.5161 32.4H16.9717V33.9429H18.5161V32.4Z" fill="#D9A066"/>
<path d="M16.9716 32.4H15.4287V33.9429H16.9716V32.4Z" fill="black"/>
<path d="M15.4286 32.4H13.8857V33.9429H15.4286V32.4Z" fill="black"/>
<path d="M13.8856 32.4H12.3428V33.9429H13.8856V32.4Z" fill="#EEC39A"/>
<path d="M12.3427 32.4H10.7998V33.9429H12.3427V32.4Z" fill="#EEC39A"/>
<path d="M10.7997 32.4H9.25684V33.9429H10.7997V32.4Z" fill="#EEC39A"/>
<path d="M9.25672 32.4H7.71387V33.9429H9.25672V32.4Z" fill="#EEC39A"/>
<path d="M7.71473 32.4H6.17188V33.9429H7.71473V32.4Z" fill="#EEC39A"/>
<path d="M6.17176 32.4H4.62891V33.9429H6.17176V32.4Z" fill="#EEC39A"/>
<path d="M4.63035 32.4H3.08594V33.9429H4.63035V32.4Z" fill="#EEC39A"/>
<path d="M3.08583 32.4H1.54297V33.9429H3.08583V32.4Z" fill="#EEC39A"/>
<path d="M1.54286 32.4H0V33.9429H1.54286V32.4Z" fill="black"/>
<path d="M37.0282 30.8571H35.4854V32.4H37.0282V30.8571Z" fill="black"/>
<path d="M35.4852 30.8571H33.9424V32.4H35.4852V30.8571Z" fill="#EEC39A"/>
<path d="M33.9432 30.8571H32.4004V32.4H33.9432V30.8571Z" fill="#EEC39A"/>
<path d="M32.4018 30.8571H30.8574V32.4H32.4018V30.8571Z" fill="#EEC39A"/>
<path d="M30.8573 30.8571H29.3145V32.4H30.8573V30.8571Z" fill="#EEC39A"/>
<path d="M29.3143 30.8571H27.7715V32.4H29.3143V30.8571Z" fill="#EEC39A"/>
<path d="M27.7714 30.8571H26.2285V32.4H27.7714V30.8571Z" fill="black"/>
<path d="M26.2284 30.8571H24.6855V32.4H26.2284V30.8571Z" fill="black"/>
<path d="M24.6854 30.8571H23.1426V32.4H24.6854V30.8571Z" fill="#8F563B"/>
<path d="M23.1425 30.8571H21.5996V32.4H23.1425V30.8571Z" fill="#8F563B"/>
<path d="M21.6005 30.8571H20.0576V32.4H21.6005V30.8571Z" fill="#8F563B"/>
<path d="M20.0575 30.8571H18.5146V32.4H20.0575V30.8571Z" fill="#8F563B"/>
<path d="M18.5161 30.8571H16.9717V32.4H18.5161V30.8571Z" fill="#D9A066"/>
<path d="M16.9716 30.8571H15.4287V32.4H16.9716V30.8571Z" fill="#D9A066"/>
<path d="M15.4286 30.8571H13.8857V32.4H15.4286V30.8571Z" fill="#D9A066"/>
<path d="M13.8856 30.8571H12.3428V32.4H13.8856V30.8571Z" fill="black"/>
<path d="M12.3427 30.8571H10.7998V32.4H12.3427V30.8571Z" fill="black"/>
<path d="M10.7997 30.8571H9.25684V32.4H10.7997V30.8571Z" fill="#EEC39A"/>
<path d="M9.25672 30.8571H7.71387V32.4H9.25672V30.8571Z" fill="#EEC39A"/>
<path d="M7.71473 30.8571H6.17188V32.4H7.71473V30.8571Z" fill="#EEC39A"/>
<path d="M6.17176 30.8571H4.62891V32.4H6.17176V30.8571Z" fill="#EEC39A"/>
<path d="M4.63035 30.8571H3.08594V32.4H4.63035V30.8571Z" fill="#EEC39A"/>
<path d="M3.08583 30.8571H1.54297V32.4H3.08583V30.8571Z" fill="black"/>
<path d="M35.4852 29.3143H33.9424V30.8571H35.4852V29.3143Z" fill="black"/>
<path d="M33.9432 29.3143H32.4004V30.8571H33.9432V29.3143Z" fill="#EEC39A"/>
<path d="M32.4018 29.3143H30.8574V30.8571H32.4018V29.3143Z" fill="#EEC39A"/>
<path d="M30.8573 29.3143H29.3145V30.8571H30.8573V29.3143Z" fill="black"/>
<path d="M29.3143 29.3143H27.7715V30.8571H29.3143V29.3143Z" fill="black"/>
<path d="M27.7714 29.3143H26.2285V30.8571H27.7714V29.3143Z" fill="#8F563B"/>
<path d="M26.2284 29.3143H24.6855V30.8571H26.2284V29.3143Z" fill="#8F563B"/>
<path d="M24.6854 29.3143H23.1426V30.8571H24.6854V29.3143Z" fill="#8F563B"/>
<path d="M23.1425 29.3143H21.5996V30.8571H23.1425V29.3143Z" fill="#8F563B"/>
<path d="M21.6005 29.3143H20.0576V30.8571H21.6005V29.3143Z" fill="#8F563B"/>
<path d="M20.0575 29.3143H18.5146V30.8571H20.0575V29.3143Z" fill="#8F563B"/>
<path d="M18.5161 29.3143H16.9717V30.8571H18.5161V29.3143Z" fill="#D9A066"/>
<path d="M16.9716 29.3143H15.4287V30.8571H16.9716V29.3143Z" fill="#D9A066"/>
<path d="M15.4286 29.3143H13.8857V30.8571H15.4286V29.3143Z" fill="#D9A066"/>
<path d="M13.8856 29.3143H12.3428V30.8571H13.8856V29.3143Z" fill="#D9A066"/>
<path d="M12.3427 29.3143H10.7998V30.8571H12.3427V29.3143Z" fill="#D9A066"/>
<path d="M10.7997 29.3143H9.25684V30.8571H10.7997V29.3143Z" fill="black"/>
<path d="M9.25672 29.3143H7.71387V30.8571H9.25672V29.3143Z" fill="black"/>
<path d="M7.71473 29.3143H6.17188V30.8571H7.71473V29.3143Z" fill="#EEC39A"/>
<path d="M6.17176 29.3143H4.62891V30.8571H6.17176V29.3143Z" fill="#EEC39A"/>
<path d="M4.63035 29.3143H3.08594V30.8571H4.63035V29.3143Z" fill="black"/>
<path d="M33.9432 27.7714H32.4004V29.3143H33.9432V27.7714Z" fill="black"/>
<path d="M32.4018 27.7714H30.8574V29.3143H32.4018V27.7714Z" fill="black"/>
<path d="M30.8573 27.7714H29.3145V29.3143H30.8573V27.7714Z" fill="#8F563B"/>
<path d="M29.3143 27.7714H27.7715V29.3143H29.3143V27.7714Z" fill="#8F563B"/>
<path d="M27.7714 27.7714H26.2285V29.3143H27.7714V27.7714Z" fill="#8F563B"/>
<path d="M26.2284 27.7714H24.6855V29.3143H26.2284V27.7714Z" fill="#8F563B"/>
<path d="M24.6854 27.7714H23.1426V29.3143H24.6854V27.7714Z" fill="#8F563B"/>
<path d="M23.1425 27.7714H21.5996V29.3143H23.1425V27.7714Z" fill="#8F563B"/>
<path d="M21.6005 27.7714H20.0576V29.3143H21.6005V27.7714Z" fill="#8F563B"/>
<path d="M20.0575 27.7714H18.5146V29.3143H20.0575V27.7714Z" fill="#8F563B"/>
<path d="M18.5161 27.7714H16.9717V29.3143H18.5161V27.7714Z" fill="#D9A066"/>
<path d="M16.9716 27.7714H15.4287V29.3143H16.9716V27.7714Z" fill="#D9A066"/>
<path d="M15.4286 27.7714H13.8857V29.3143H15.4286V27.7714Z" fill="#D9A066"/>
<path d="M13.8856 27.7714H12.3428V29.3143H13.8856V27.7714Z" fill="#D9A066"/>
<path d="M12.3427 27.7714H10.7998V29.3143H12.3427V27.7714Z" fill="#D9A066"/>
<path d="M10.7997 27.7714H9.25684V29.3143H10.7997V27.7714Z" fill="#D9A066"/>
<path d="M9.25672 27.7714H7.71387V29.3143H9.25672V27.7714Z" fill="#D9A066"/>
<path d="M7.71473 27.7714H6.17188V29.3143H7.71473V27.7714Z" fill="black"/>
<path d="M6.17176 27.7714H4.62891V29.3143H6.17176V27.7714Z" fill="black"/>
<path d="M30.8573 26.2286H29.3145V27.7714H30.8573V26.2286Z" fill="black"/>
<path d="M29.3143 26.2286H27.7715V27.7714H29.3143V26.2286Z" fill="black"/>
<path d="M27.7714 26.2286H26.2285V27.7714H27.7714V26.2286Z" fill="#8F563B"/>
<path d="M26.2284 26.2286H24.6855V27.7714H26.2284V26.2286Z" fill="#8F563B"/>
<path d="M24.6854 26.2286H23.1426V27.7714H24.6854V26.2286Z" fill="#8F563B"/>
<path d="M23.1425 26.2286H21.5996V27.7714H23.1425V26.2286Z" fill="#8F563B"/>
<path d="M21.6005 26.2286H20.0576V27.7714H21.6005V26.2286Z" fill="#8F563B"/>
<path d="M20.0575 26.2286H18.5146V27.7714H20.0575V26.2286Z" fill="#8F563B"/>
<path d="M18.5161 26.2286H16.9717V27.7714H18.5161V26.2286Z" fill="#D9A066"/>
<path d="M16.9716 26.2286H15.4287V27.7714H16.9716V26.2286Z" fill="#D9A066"/>
<path d="M15.4286 26.2286H13.8857V27.7714H15.4286V26.2286Z" fill="#D9A066"/>
<path d="M13.8856 26.2286H12.3428V27.7714H13.8856V26.2286Z" fill="#D9A066"/>
<path d="M12.3427 26.2286H10.7998V27.7714H12.3427V26.2286Z" fill="#D9A066"/>
<path d="M10.7997 26.2286H9.25684V27.7714H10.7997V26.2286Z" fill="black"/>
<path d="M9.25672 26.2286H7.71387V27.7714H9.25672V26.2286Z" fill="black"/>
<path d="M27.7714 24.6857H26.2285V26.2286H27.7714V24.6857Z" fill="black"/>
<path d="M26.2284 24.6857H24.6855V26.2286H26.2284V24.6857Z" fill="black"/>
<path d="M24.6854 24.6857H23.1426V26.2286H24.6854V24.6857Z" fill="#8F563B"/>
<path d="M23.1425 24.6857H21.5996V26.2286H23.1425V24.6857Z" fill="#8F563B"/>
<path d="M21.6005 24.6857H20.0576V26.2286H21.6005V24.6857Z" fill="#8F563B"/>
<path d="M20.0575 24.6857H18.5146V26.2286H20.0575V24.6857Z" fill="#8F563B"/>
<path d="M18.5161 24.6857H16.9717V26.2286H18.5161V24.6857Z" fill="#D9A066"/>
<path d="M16.9716 24.6857H15.4287V26.2286H16.9716V24.6857Z" fill="#D9A066"/>
<path d="M15.4286 24.6857H13.8857V26.2286H15.4286V24.6857Z" fill="#D9A066"/>
<path d="M13.8856 24.6857H12.3428V26.2286H13.8856V24.6857Z" fill="black"/>
<path d="M12.3427 24.6857H10.7998V26.2286H12.3427V24.6857Z" fill="black"/>
<path d="M24.6854 23.1429H23.1426V24.6857H24.6854V23.1429Z" fill="black"/>
<path d="M23.1425 23.1429H21.5996V24.6857H23.1425V23.1429Z" fill="black"/>
<path d="M21.6005 23.1429H20.0576V24.6857H21.6005V23.1429Z" fill="#8F563B"/>
<path d="M20.0575 23.1429H18.5146V24.6857H20.0575V23.1429Z" fill="#8F563B"/>
<path d="M18.5161 23.1429H16.9717V24.6857H18.5161V23.1429Z" fill="#D9A066"/>
<path d="M16.9716 23.1429H15.4287V24.6857H16.9716V23.1429Z" fill="black"/>
<path d="M15.4286 23.1429H13.8857V24.6857H15.4286V23.1429Z" fill="black"/>
<path d="M21.6005 21.5984H20.0576V23.1428H21.6005V21.5984Z" fill="black"/>
<path d="M20.0575 21.5984H18.5146V23.1428H20.0575V21.5984Z" fill="black"/>
<path d="M18.5161 21.5984H16.9717V23.1428H18.5161V21.5984Z" fill="black"/>
<path d="M20.0575 18.5143H18.5146V20.0571H20.0575V18.5143Z" fill="black"/>
<path d="M18.5161 18.5143H16.9717V20.0571H18.5161V18.5143Z" fill="black"/>
<path d="M23.1425 16.9714H21.5996V18.5143H23.1425V16.9714Z" fill="black"/>
<path d="M21.6005 16.9714H20.0576V18.5143H21.6005V16.9714Z" fill="black"/>
<path d="M20.0575 16.9714H18.5146V18.5143H20.0575V16.9714Z" fill="#DF7126"/>
<path d="M18.5161 16.9714H16.9717V18.5143H18.5161V16.9714Z" fill="white"/>
<path d="M16.9716 16.9714H15.4287V18.5143H16.9716V16.9714Z" fill="black"/>
<path d="M15.4286 16.9714H13.8857V18.5143H15.4286V16.9714Z" fill="black"/>
<path d="M26.2284 15.4286H24.6855V16.9714H26.2284V15.4286Z" fill="black"/>
<path d="M24.6854 15.4286H23.1426V16.9714H24.6854V15.4286Z" fill="black"/>
<path d="M23.1425 15.4286H21.5996V16.9714H23.1425V15.4286Z" fill="#DF7126"/>
<path d="M21.6005 15.4286H20.0576V16.9714H21.6005V15.4286Z" fill="#DF7126"/>
<path d="M20.0575 15.4286H18.5146V16.9714H20.0575V15.4286Z" fill="#DF7126"/>
<path d="M18.5161 15.4286H16.9717V16.9714H18.5161V15.4286Z" fill="white"/>
<path d="M16.9716 15.4286H15.4287V16.9714H16.9716V15.4286Z" fill="#FBF236"/>
<path d="M15.4286 15.4286H13.8857V16.9714H15.4286V15.4286Z" fill="#FBF236"/>
<path d="M13.8856 15.4286H12.3428V16.9714H13.8856V15.4286Z" fill="black"/>
<path d="M12.3427 15.4286H10.7998V16.9714H12.3427V15.4286Z" fill="black"/>
<path d="M27.7714 13.8857H26.2285V15.4286H27.7714V13.8857Z" fill="black"/>
<path d="M26.2284 13.8857H24.6855V15.4286H26.2284V13.8857Z" fill="#DF7126"/>
<path d="M24.6854 13.8857H23.1426V15.4286H24.6854V13.8857Z" fill="#DF7126"/>
<path d="M23.1425 13.8857H21.5996V15.4286H23.1425V13.8857Z" fill="#DF7126"/>
<path d="M21.6005 13.8857H20.0576V15.4286H21.6005V13.8857Z" fill="#DF7126"/>
<path d="M20.0575 13.8857H18.5146V15.4286H20.0575V13.8857Z" fill="#DF7126"/>
<path d="M18.5161 13.8857H16.9717V15.4286H18.5161V13.8857Z" fill="white"/>
<path d="M16.9716 13.8857H15.4287V15.4286H16.9716V13.8857Z" fill="#FBF236"/>
<path d="M15.4286 13.8857H13.8857V15.4286H15.4286V13.8857Z" fill="#FBF236"/>
<path d="M13.8856 13.8857H12.3428V15.4286H13.8856V13.8857Z" fill="#FBF236"/>
<path d="M12.3427 13.8857H10.7998V15.4286H12.3427V13.8857Z" fill="#FBF236"/>
<path d="M10.7997 13.8857H9.25684V15.4286H10.7997V13.8857Z" fill="black"/>
<path d="M27.7714 12.3428H26.2285V13.8857H27.7714V12.3428Z" fill="black"/>
<path d="M26.2284 12.3428H24.6855V13.8857H26.2284V12.3428Z" fill="#DF7126"/>
<path d="M24.6854 12.3428H23.1426V13.8857H24.6854V12.3428Z" fill="#DF7126"/>
<path d="M23.1425 12.3428H21.5996V13.8857H23.1425V12.3428Z" fill="#DF7126"/>
<path d="M21.6005 12.3428H20.0576V13.8857H21.6005V12.3428Z" fill="#DF7126"/>
<path d="M20.0575 12.3428H18.5146V13.8857H20.0575V12.3428Z" fill="#DF7126"/>
<path d="M18.5161 12.3428H16.9717V13.8857H18.5161V12.3428Z" fill="white"/>
<path d="M16.9716 12.3428H15.4287V13.8857H16.9716V12.3428Z" fill="#FBF236"/>
<path d="M15.4286 12.3428H13.8857V13.8857H15.4286V12.3428Z" fill="#FBF236"/>
<path d="M13.8856 12.3428H12.3428V13.8857H13.8856V12.3428Z" fill="#FBF236"/>
<path d="M12.3427 12.3428H10.7998V13.8857H12.3427V12.3428Z" fill="#FBF236"/>
<path d="M10.7997 12.3428H9.25684V13.8857H10.7997V12.3428Z" fill="black"/>
<path d="M27.7714 10.8H26.2285V12.3428H27.7714V10.8Z" fill="black"/>
<path d="M26.2284 10.8H24.6855V12.3428H26.2284V10.8Z" fill="#DF7126"/>
<path d="M24.6854 10.8H23.1426V12.3428H24.6854V10.8Z" fill="#DF7126"/>
<path d="M23.1425 10.8H21.5996V12.3428H23.1425V10.8Z" fill="#DF7126"/>
<path d="M21.6005 10.8H20.0576V12.3428H21.6005V10.8Z" fill="#DF7126"/>
<path d="M20.0575 10.8H18.5146V12.3428H20.0575V10.8Z" fill="#DF7126"/>
<path d="M18.5161 10.8H16.9717V12.3428H18.5161V10.8Z" fill="white"/>
<path d="M16.9716 10.8H15.4287V12.3428H16.9716V10.8Z" fill="#FBF236"/>
<path d="M15.4286 10.8H13.8857V12.3428H15.4286V10.8Z" fill="#FBF236"/>
<path d="M13.8856 10.8H12.3428V12.3428H13.8856V10.8Z" fill="#FBF236"/>
<path d="M12.3427 10.8H10.7998V12.3428H12.3427V10.8Z" fill="#FBF236"/>
<path d="M10.7997 10.8H9.25684V12.3428H10.7997V10.8Z" fill="black"/>
<path d="M27.7714 9.25714H26.2285V10.8H27.7714V9.25714Z" fill="black"/>
<path d="M26.2284 9.25714H24.6855V10.8H26.2284V9.25714Z" fill="#DF7126"/>
<path d="M24.6854 9.25714H23.1426V10.8H24.6854V9.25714Z" fill="#DF7126"/>
<path d="M23.1425 9.25714H21.5996V10.8H23.1425V9.25714Z" fill="#DF7126"/>
<path d="M21.6005 9.25714H20.0576V10.8H21.6005V9.25714Z" fill="#DF7126"/>
<path d="M20.0575 9.25714H18.5146V10.8H20.0575V9.25714Z" fill="#DF7126"/>
<path d="M18.5161 9.25714H16.9717V10.8H18.5161V9.25714Z" fill="white"/>
<path d="M16.9716 9.25714H15.4287V10.8H16.9716V9.25714Z" fill="#FBF236"/>
<path d="M15.4286 9.25714H13.8857V10.8H15.4286V9.25714Z" fill="#FBF236"/>
<path d="M13.8856 9.25714H12.3428V10.8H13.8856V9.25714Z" fill="#FBF236"/>
<path d="M12.3427 9.25714H10.7998V10.8H12.3427V9.25714Z" fill="#FBF236"/>
<path d="M10.7997 9.25714H9.25684V10.8H10.7997V9.25714Z" fill="black"/>
<path d="M27.7714 7.71277H26.2285V9.25717H27.7714V7.71277Z" fill="black"/>
<path d="M26.2284 7.71277H24.6855V9.25717H26.2284V7.71277Z" fill="#DF7126"/>
<path d="M24.6854 7.71277H23.1426V9.25717H24.6854V7.71277Z" fill="#DF7126"/>
<path d="M23.1425 7.71277H21.5996V9.25717H23.1425V7.71277Z" fill="#DF7126"/>
<path d="M21.6005 7.71277H20.0576V9.25717H21.6005V7.71277Z" fill="#DF7126"/>
<path d="M20.0575 7.71277H18.5146V9.25717H20.0575V7.71277Z" fill="#DF7126"/>
<path d="M18.5161 7.71277H16.9717V9.25717H18.5161V7.71277Z" fill="white"/>
<path d="M16.9716 7.71277H15.4287V9.25717H16.9716V7.71277Z" fill="#FBF236"/>
<path d="M15.4286 7.71277H13.8857V9.25717H15.4286V7.71277Z" fill="#FBF236"/>
<path d="M13.8856 7.71277H12.3428V9.25717H13.8856V7.71277Z" fill="#FBF236"/>
<path d="M12.3427 7.71277H10.7998V9.25717H12.3427V7.71277Z" fill="#FBF236"/>
<path d="M10.7997 7.71277H9.25684V9.25717H10.7997V7.71277Z" fill="black"/>
<path d="M27.7714 6.17145H26.2285V7.7143H27.7714V6.17145Z" fill="black"/>
<path d="M26.2284 6.17145H24.6855V7.7143H26.2284V6.17145Z" fill="#DF7126"/>
<path d="M24.6854 6.17145H23.1426V7.7143H24.6854V6.17145Z" fill="#DF7126"/>
<path d="M23.1425 6.17145H21.5996V7.7143H23.1425V6.17145Z" fill="#DF7126"/>
<path d="M21.6005 6.17145H20.0576V7.7143H21.6005V6.17145Z" fill="#DF7126"/>
<path d="M20.0575 6.17145H18.5146V7.7143H20.0575V6.17145Z" fill="#FBF236"/>
<path d="M18.5161 6.17145H16.9717V7.7143H18.5161V6.17145Z" fill="#FBF236"/>
<path d="M16.9716 6.17145H15.4287V7.7143H16.9716V6.17145Z" fill="white"/>
<path d="M15.4286 6.17145H13.8857V7.7143H15.4286V6.17145Z" fill="white"/>
<path d="M13.8856 6.17145H12.3428V7.7143H13.8856V6.17145Z" fill="#FBF236"/>
<path d="M12.3427 6.17145H10.7998V7.7143H12.3427V6.17145Z" fill="#FBF236"/>
<path d="M10.7997 6.17145H9.25684V7.7143H10.7997V6.17145Z" fill="black"/>
<path d="M27.7714 4.62854H26.2285V6.1714H27.7714V4.62854Z" fill="black"/>
<path d="M26.2284 4.62854H24.6855V6.1714H26.2284V4.62854Z" fill="#DF7126"/>
<path d="M24.6854 4.62854H23.1426V6.1714H24.6854V4.62854Z" fill="#DF7126"/>
<path d="M23.1425 4.62854H21.5996V6.1714H23.1425V4.62854Z" fill="#FBF236"/>
<path d="M21.6005 4.62854H20.0576V6.1714H21.6005V4.62854Z" fill="#FBF236"/>
<path d="M20.0575 4.62854H18.5146V6.1714H20.0575V4.62854Z" fill="#FBF236"/>
<path d="M18.5161 4.62854H16.9717V6.1714H18.5161V4.62854Z" fill="#FBF236"/>
<path d="M16.9716 4.62854H15.4287V6.1714H16.9716V4.62854Z" fill="#FBF236"/>
<path d="M15.4286 4.62854H13.8857V6.1714H15.4286V4.62854Z" fill="#FBF236"/>
<path d="M13.8856 4.62854H12.3428V6.1714H13.8856V4.62854Z" fill="white"/>
<path d="M12.3427 4.62854H10.7998V6.1714H12.3427V4.62854Z" fill="white"/>
<path d="M10.7997 4.62854H9.25684V6.1714H10.7997V4.62854Z" fill="black"/>
<path d="M26.2284 3.08569H24.6855V4.62855H26.2284V3.08569Z" fill="black"/>
<path d="M24.6854 3.08569H23.1426V4.62855H24.6854V3.08569Z" fill="black"/>
<path d="M23.1425 3.08569H21.5996V4.62855H23.1425V3.08569Z" fill="#FBF236"/>
<path d="M21.6005 3.08569H20.0576V4.62855H21.6005V3.08569Z" fill="#FBF236"/>
<path d="M20.0575 3.08569H18.5146V4.62855H20.0575V3.08569Z" fill="#FBF236"/>
<path d="M18.5161 3.08569H16.9717V4.62855H18.5161V3.08569Z" fill="#FBF236"/>
<path d="M16.9716 3.08569H15.4287V4.62855H16.9716V3.08569Z" fill="#FBF236"/>
<path d="M15.4286 3.08569H13.8857V4.62855H15.4286V3.08569Z" fill="#FBF236"/>
<path d="M13.8856 3.08569H12.3428V4.62855H13.8856V3.08569Z" fill="black"/>
<path d="M12.3427 3.08569H10.7998V4.62855H12.3427V3.08569Z" fill="black"/>
<path d="M23.1425 1.54285H21.5996V3.0857H23.1425V1.54285Z" fill="black"/>
<path d="M21.6005 1.54285H20.0576V3.0857H21.6005V1.54285Z" fill="black"/>
<path d="M20.0575 1.54285H18.5146V3.0857H20.0575V1.54285Z" fill="#FBF236"/>
<path d="M18.5161 1.54285H16.9717V3.0857H18.5161V1.54285Z" fill="#FBF236"/>
<path d="M16.9716 1.54285H15.4287V3.0857H16.9716V1.54285Z" fill="black"/>
<path d="M15.4286 1.54285H13.8857V3.0857H15.4286V1.54285Z" fill="black"/>
<path d="M20.0575 0H18.5146V1.54286H20.0575V0Z" fill="black"/>
<path d="M18.5161 0H16.9717V1.54286H18.5161V0Z" fill="black"/>
</svg>
